<?xml version="1.0" encoding="utf-8"?>
<!-- Generator: Adobe Illustrator 23.0.1, SVG Export Plug-In . SVG Version: 6.00 Build 0)  -->
<svg version="1.1" id="Layer_1" xmlns="http://www.w3.org/2000/svg" xmlns:xlink="http://www.w3.org/1999/xlink" x="0px" y="0px"
	 viewBox="0 0 166.33 156.78" style="enable-background:new 0 0 166.33 156.78;" xml:space="preserve">
<style type="text/css">
	.st0{fill:#252D3D;}
	.st1{fill:#1F8FCD;}
	.st2{fill:#EE8423;}
	.st3{fill:#FFFFFF;}
	.st4{fill:#5CC2DB;}
	.st5{fill:none;stroke:#252D3D;stroke-width:5;stroke-miterlimit:10;}
	.st6{fill:#EC6439;}
</style>
<path class="st1" d="M47.6,77.92c0-19.57,15.87-35.44,35.44-35.44c19.58,0,35.44,15.87,35.44,35.44c0,19.57-15.87,35.44-35.44,35.44
	C63.46,113.36,47.6,97.49,47.6,77.92z"/>
<path class="st2" d="M83.04,128.91c-28.12,0-50.99-22.87-50.99-50.99c0-28.12,22.88-50.99,50.99-50.99
	c28.12,0,50.99,22.88,50.99,50.99C134.03,106.03,111.16,128.91,83.04,128.91z M83.04,31.53c-25.58,0-46.39,20.81-46.39,46.39
	c0,25.58,20.81,46.39,46.39,46.39c25.58,0,46.39-20.81,46.39-46.39C129.43,52.34,108.62,31.53,83.04,31.53z"/>
<g>
	<path class="st3" d="M70.92,84.93h2.54l-1.35-3.44h-8.07l-1.32,3.44h2.47v3.21h-9.35v-3.66h2.44l6.68-15.62h-2.54V65.2h7.68
		l8.03,19.28h2.44v3.66h-9.67V84.93z M68.13,70.25h-0.03l-2.92,7.87h5.85L68.13,70.25z"/>
	<path class="st3" d="M81.08,79.5c0-5.01,4.08-9.03,9.06-9.03c4.95,0,8.93,4.11,8.93,9c0,5.01-3.99,9.13-9.03,9.13
		C85.03,88.6,81.08,84.45,81.08,79.5z M95.22,79.57c0-2.8-2.22-5.24-5.08-5.24c-2.83,0-5.21,2.28-5.21,5.14
		c0,2.83,2.19,5.27,5.11,5.27C92.9,84.74,95.22,82.43,95.22,79.57z"/>
	<path class="st3" d="M106.18,84.48h2.22v3.66h-8.52v-3.66h2.38V68.87h-2.22V65.2h6.14V84.48z"/>
</g>
<line class="st5" x1="32.04" y1="128.91" x2="134.28" y2="26.67"/>
</svg>
