<svg xmlns="http://www.w3.org/2000/svg" width="173.828" height="69.715" viewBox="0 0 173.828 69.715"><g transform="translate(-264.12 -436.472)"><path d="M296.629,477.962a12.323,12.323,0,1,1,12.279,12.452,12.384,12.384,0,0,1-12.279-12.452m19.363.088a7.041,7.041,0,1,0-7.083,7.085,7.1,7.1,0,0,0,7.083-7.085" transform="translate(17.603 15.772)" fill="#fff"/><path d="M321.1,487.316h3.037v5.016H312.471v-5.016h3.257V465.935h-3.037v-5.016h8.4Z" transform="translate(26.181 13.237)" fill="#fff"/><path d="M372.384,488.814a8.891,8.891,0,0,1-7.7,3.871,12.122,12.122,0,0,1-.043-24.241,9.8,9.8,0,0,1,7.743,3.826v-6.334H369.3v-5.016h8.447v26.4h3.037v5.016h-8.4Zm.133-8.316a7.107,7.107,0,1,0-7.128,7.259,7.181,7.181,0,0,0,7.128-7.259" transform="translate(47.973 13.238)" fill="#fff"/><path d="M281.092,483.927a6.721,6.721,0,0,1-4.783,1.78,7.25,7.25,0,0,1-7.04-5.633h19.008l.176-1.891a12.278,12.278,0,0,0-3.3-8.8,12.589,12.589,0,0,0-8.8-3.783,12.408,12.408,0,0,0,.133,24.815,12.024,12.024,0,0,0,10.595-6.488Zm-5-13.531a7.505,7.505,0,0,1,7.393,5.545H269.225a7.275,7.275,0,0,1,6.863-5.545" transform="translate(0 15.772)" fill="#fff"/><path d="M337.02,466.055v5.016l-4.62,11.88h-.045l-4.264-11.745h-.048v-5.152h-8.58v5.016h2.859l7.216,18.479h5.633l7.393-18.479h2.772v-5.016Z" transform="translate(29.968 16.019)" fill="#fff"/><path d="M353.115,483.927a6.727,6.727,0,0,1-4.783,1.78,7.251,7.251,0,0,1-7.041-5.633H360.3l.177-1.891a12.28,12.28,0,0,0-3.3-8.8,12.586,12.586,0,0,0-8.8-3.783,12.408,12.408,0,0,0,.131,24.815,12.028,12.028,0,0,0,10.6-6.488Zm-5-13.531a7.505,7.505,0,0,1,7.393,5.545H341.248a7.276,7.276,0,0,1,6.863-5.545" transform="translate(38.999 15.772)" fill="#fff"/><path d="M297.424,466.055v5.016l-4.618,11.88h-.045L288.5,471.207h-.048v-5.152h-8.581v5.016h2.861l7.214,18.479h5.634l7.391-18.479h2.773v-5.016Z" transform="translate(8.527 16.019)" fill="#fff"/><path d="M379.205,480.445a3.3,3.3,0,1,1-3.3-3.3,3.3,3.3,0,0,1,3.3,3.3" transform="translate(58.743 22.024)" fill="#fff"/><path d="M328.778,460.406a3.3,3.3,0,1,1-3.3-3.3,3.3,3.3,0,0,1,3.3,3.3" transform="translate(31.438 11.172)" fill="#fff"/><path d="M322.874,453.9a3.3,3.3,0,1,1-3.3-3.3,3.3,3.3,0,0,1,3.3,3.3" transform="translate(28.241 7.648)" fill="#fff"/><path d="M296.505,453.9a3.3,3.3,0,1,1-3.3-3.3,3.3,3.3,0,0,1,3.3,3.3" transform="translate(13.963 7.648)" fill="#fff"/><path d="M288.633,461.769a3.3,3.3,0,1,1-3.3-3.3,3.3,3.3,0,0,1,3.3,3.3" transform="translate(9.7 11.91)" fill="#fff"/><path d="M271.711,461.769a3.3,3.3,0,1,1-3.3-3.3,3.3,3.3,0,0,1,3.3,3.3" transform="translate(0.537 11.91)" fill="#fff"/><line x1="26.088" transform="translate(268.948 473.679)" fill="#fff"/><rect width="26.088" height="2.426" transform="translate(268.948 472.466)" fill="#fff"/><line y1="12.135" x2="12.133" transform="translate(295.036 461.544)" fill="#fff"/><rect width="17.16" height="2.425" transform="translate(294.175 472.818) rotate(-44.975)" fill="#fff"/><line x1="40.647" transform="translate(307.169 461.544)" fill="#fff"/><rect width="40.647" height="2.428" transform="translate(307.169 460.331)" fill="#fff"/><line x2="9.099" y2="9.708" transform="translate(347.816 461.544)" fill="#fff"/><rect width="2.425" height="13.305" transform="matrix(0.73, -0.684, 0.684, 0.73, 346.932, 462.375)" fill="#fff"/><path d="M336.648,460.406a3.3,3.3,0,1,1-3.3-3.3,3.3,3.3,0,0,1,3.3,3.3" transform="translate(35.7 11.172)" fill="#fff"/><line x1="12.603" transform="translate(356.448 471.577)" fill="#fff"/><rect width="12.603" height="2.425" transform="translate(356.447 470.365)" fill="#fff"/><path d="M355.823,439.772a3.3,3.3,0,1,1-3.3-3.3,3.3,3.3,0,0,1,3.3,3.3" transform="translate(46.083)" fill="#fff"/><path d="M344.126,451.249a3.3,3.3,0,1,1-3.3-3.3,3.3,3.3,0,0,1,3.3,3.3" transform="translate(39.75 6.215)" fill="#fff"/><line x1="11.527" y2="14.112" transform="translate(369.05 457.465)" fill="#fff"/><rect width="18.221" height="2.427" transform="matrix(0.632, -0.775, 0.775, 0.632, 368.112, 470.81)" fill="#fff"/><line y1="17.693" x2="18.029" transform="translate(380.577 439.771)" fill="#fff"/><rect width="25.262" height="2.426" transform="matrix(0.714, -0.7, 0.7, 0.714, 379.723, 456.594)" fill="#fff"/></g></svg>