<svg xmlns="http://www.w3.org/2000/svg" width="67.382" height="85.66" viewBox="0 0 67.382 85.66"><g transform="translate(1755 -206)"><g transform="translate(-1746.977 213.932)"><path d="M1548.391,583.225a25.727,25.727,0,0,0-9.329,49.7,6.953,6.953,0,0,1,6.807-5.667h5.035a6.951,6.951,0,0,1,6.814,5.667,25.728,25.728,0,0,0-9.327-49.7Z" transform="translate(-1522.663 -583.225)" fill="#ed8422"/></g><g transform="translate(-1732.289 256.44)"><path d="M1558.216,682.026h-5.035a8.469,8.469,0,0,1-8.459-8.461v-18.3a8.468,8.468,0,0,1,8.459-8.459h5.035a8.471,8.471,0,0,1,8.466,8.459v18.3A8.472,8.472,0,0,1,1558.216,682.026Zm-5.035-32.16a5.4,5.4,0,0,0-5.4,5.4v18.3a5.406,5.406,0,0,0,5.4,5.4h5.035a5.409,5.409,0,0,0,5.406-5.4v-18.3a5.408,5.408,0,0,0-5.406-5.4Z" transform="translate(-1544.722 -646.805)" fill="#242d3c"/><path d="M1562.224,658.864a2.142,2.142,0,1,1-2.145-2.145A2.148,2.148,0,0,1,1562.224,658.864Z" transform="translate(-1549.103 -650.091)" fill="#242d3c"/></g><path d="M1527.635,634.225c-.921-.532-1.828-1.114-2.7-1.732l1.773-2.494c.79.562,1.616,1.092,2.453,1.575Zm33.677-.033-1.532-2.649c.834-.483,1.659-1.014,2.448-1.578l1.779,2.49C1563.136,633.076,1562.23,633.66,1561.311,634.191Zm-38.894-3.677c-.806-.7-1.587-1.44-2.321-2.208l2.211-2.115c.669.7,1.379,1.375,2.112,2.008Zm44.1-.043-2-2.312c.73-.633,1.439-1.31,2.107-2.012l2.216,2.111C1568.1,629.031,1567.323,629.776,1566.52,630.471Zm-48.528-4.582c-.661-.837-1.288-1.714-1.865-2.606l2.571-1.661c.524.811,1.094,1.608,1.7,2.369Zm52.943-.052-2.4-1.895c.6-.757,1.165-1.554,1.691-2.371l2.574,1.656C1572.218,624.126,1571.593,625,1570.936,625.837Zm-56.417-5.325c-.49-.945-.941-1.925-1.338-2.912l2.839-1.145c.361.9.771,1.789,1.216,2.647Zm59.883-.061-2.72-1.4c.443-.859.85-1.752,1.211-2.65l2.841,1.138C1575.338,618.525,1574.889,619.506,1574.4,620.451Zm-62.276-5.879c-.3-1.022-.557-2.07-.759-3.114l3.005-.582c.183.949.416,1.9.69,2.829Zm64.655-.066-2.938-.859c.271-.93.5-1.883.684-2.832l3.005.575C1577.333,612.434,1577.08,613.481,1576.781,614.506Zm-65.873-6.219c-.1-1.056-.155-2.133-.156-3.2l3.061-.006c0,.971.049,1.951.142,2.911Zm67.076-.069-3.047-.287c.09-.961.136-1.942.136-2.911v-.13h3.061v.13C1578.134,606.084,1578.083,607.161,1577.984,608.217Zm-64.041-6.048-3.047-.281c.1-1.06.247-2.127.445-3.173l3.008.569C1514.168,600.235,1514.032,601.205,1513.943,602.169Zm60.982-.186c-.095-.962-.236-1.932-.422-2.881l3-.588c.2,1.045.362,2.111.465,3.17Zm-59.9-5.531-2.938-.854c.3-1.022.647-2.042,1.041-3.032l2.844,1.131C1515.615,594.6,1515.3,595.524,1515.026,596.452Zm58.781-.179c-.275-.93-.6-1.855-.962-2.749l2.837-1.15c.4.985.756,2,1.06,3.025Zm-56.63-5.228-2.722-1.4c.487-.947,1.024-1.882,1.6-2.777l2.577,1.651C1518.107,589.335,1517.619,590.185,1517.177,591.046Zm54.448-.165c-.448-.858-.941-1.705-1.469-2.516l2.566-1.666c.581.892,1.123,1.824,1.615,2.768Zm-51.308-4.736-2.409-1.889c.656-.836,1.361-1.653,2.093-2.426l2.22,2.107C1521.554,584.64,1520.913,585.382,1520.316,586.145Zm48.138-.148c-.6-.758-1.245-1.5-1.916-2.195l2.207-2.12c.738.768,1.447,1.581,2.107,2.414Zm-44.13-4.077-2.011-2.307c.8-.7,1.649-1.369,2.512-1.988l1.784,2.486C1525.824,580.674,1525.055,581.283,1524.324,581.92Zm40.1-.122c-.735-.633-1.508-1.237-2.3-1.8l1.768-2.5c.868.614,1.719,1.278,2.526,1.973Zm-35.368-3.271-1.54-2.645c.921-.536,1.878-1.034,2.844-1.479l1.281,2.779C1530.762,577.588,1529.892,578.04,1529.055,578.527Zm30.616-.094c-.841-.481-1.713-.928-2.594-1.328l1.264-2.787c.97.439,1.929.931,2.853,1.461Zm-25.331-2.341-1.009-2.89c1.006-.35,2.04-.657,3.073-.91l.728,2.972C1536.194,575.5,1535.254,575.773,1534.341,576.093Zm20.027-.062c-.913-.313-1.853-.586-2.8-.81l.709-2.977c1.038.247,2.073.547,3.079.891Zm-14.377-1.322-.44-3.029c1.05-.154,2.124-.257,3.188-.312l.152,3.057C1541.923,574.475,1540.948,574.57,1539.991,574.709Zm8.718-.027c-.954-.132-1.93-.222-2.9-.264l.135-3.058c1.067.047,2.14.144,3.19.291Z" transform="translate(-3265.752 -365.36)" fill="#1d90cd"/><path d="M-10.56-10.563A1.17,1.17,0,0,0-9.3-9.413H2.41A1.416,1.416,0,0,0,3.854-10.83,1.438,1.438,0,0,0,2.41-12.274H-4.971v-4.573h5.4a1.4,1.4,0,0,0,1.391-1.391A1.416,1.416,0,0,0,.431-19.628h-5.4v-2.38A3.661,3.661,0,0,1-4.088-24.6a2.7,2.7,0,0,1,1.979-.749A3.663,3.663,0,0,1,.752-23.961a1.523,1.523,0,0,0,1.177.508,1.6,1.6,0,0,0,1.631-1.6,1.606,1.606,0,0,0-.508-1.177A6.688,6.688,0,0,0-2.163-28.4a6.058,6.058,0,0,0-4.493,1.658,6.453,6.453,0,0,0-1.658,4.653v2.46h-.856a1.4,1.4,0,0,0-1.391,1.391,1.381,1.381,0,0,0,1.391,1.391h.856v4.707l-1.364.4A1.188,1.188,0,0,0-10.56-10.563Z" transform="translate(-1718.072 257.527)" fill="#fff"/></g></svg>