<?xml version="1.0" encoding="utf-8"?>
<!-- Generator: Adobe Illustrator 23.0.1, SVG Export Plug-In . SVG Version: 6.00 Build 0)  -->
<svg version="1.1" id="Layer_1" xmlns="http://www.w3.org/2000/svg" xmlns:xlink="http://www.w3.org/1999/xlink" x="0px" y="0px"
	 viewBox="0 0 166.33 156.78" style="enable-background:new 0 0 166.33 156.78;" xml:space="preserve">
<style type="text/css">
	.st0{fill:#252D3D;}
	.st1{fill:#1F8FCD;}
	.st2{fill:#EE8423;}
	.st3{fill:#FFFFFF;}
	.st4{fill:#5CC2DB;}
	.st5{fill:none;stroke:#252D3D;stroke-width:5;stroke-miterlimit:10;}
	.st6{fill:#EC6439;}
</style>
<g>
	<g>
		<path class="st1" d="M140.62,118.71H25.71V49.66c0-1.59,0.62-3.09,1.75-4.22c1.11-1.12,2.61-1.75,4.21-1.75h102.97
			c1.59,0,3.09,0.62,4.22,1.75c1.13,1.14,1.75,2.63,1.75,4.22V118.71z M30.29,114.13h105.75V49.66c0-0.37-0.15-0.72-0.41-0.98
			c-0.26-0.26-0.61-0.41-0.98-0.41H31.68c-0.37,0-0.71,0.14-0.97,0.4c-0.27,0.27-0.42,0.62-0.42,0.99V114.13z"/>
		<rect x="36.85" y="54.83" class="st1" width="92.62" height="61.59"/>
		<path class="st1" d="M144.63,128.52H21.7c-1.91,0-3.72-0.75-5.09-2.1c-1.36-1.36-2.11-3.17-2.11-5.1v-7.2h137.33v7.2
			c0,1.93-0.75,3.73-2.11,5.09C148.36,127.78,146.55,128.52,144.63,128.52z M19.08,118.71v2.62c0,0.7,0.27,1.36,0.76,1.85
			c0.5,0.49,1.16,0.77,1.86,0.77h122.93c0.7,0,1.36-0.27,1.86-0.77c0.49-0.49,0.76-1.15,0.76-1.85v-2.62H19.08z"/>
	</g>
	<g>
		<polygon class="st2" points="83,45.98 53.25,26.3 53.25,65.67 112.76,65.67 112.76,26.3 		"/>
		<path class="st0" d="M115.04,67.95H50.96V24.01h64.09V67.95z M55.53,63.38h54.93V28.59H55.53V63.38z"/>
		<polygon class="st0" points="83,48.73 51.98,28.21 54.51,24.39 83,43.24 111.49,24.39 114.02,28.21 		"/>
		
			<rect x="101.52" y="49.02" transform="matrix(0.5517 -0.834 0.834 0.5517 -3.296 113.3603)" class="st0" width="4.58" height="21.46"/>
		
			<rect x="51.46" y="57.46" transform="matrix(0.8341 -0.5517 0.5517 0.8341 -22.6398 44.2223)" class="st0" width="21.46" height="4.58"/>
	</g>
	<g>
		<rect x="82.14" y="79.85" class="st3" width="29.65" height="4.58"/>
		<rect x="82.14" y="88.75" class="st3" width="29.65" height="4.58"/>
		<rect x="82.14" y="97.64" class="st3" width="29.65" height="4.58"/>
	</g>
	<g>
		<path class="st3" d="M72.83,103.85h-4.58V85.77c0-0.79-0.31-1.54-0.87-2.1c-0.56-0.56-1.31-0.87-2.1-0.87h-3.51
			c-0.79,0-1.54,0.31-2.11,0.87c-0.56,0.56-0.87,1.31-0.87,2.1v18.08h-4.58V85.77c0-2.02,0.79-3.91,2.21-5.34
			c1.43-1.43,3.32-2.21,5.34-2.21h3.51c2.02,0,3.91,0.79,5.34,2.21c1.43,1.43,2.21,3.32,2.21,5.34V103.85z"/>
		<rect x="54.21" y="88.75" class="st3" width="18.62" height="4.58"/>
	</g>
</g>
</svg>
