<?xml version="1.0" encoding="utf-8"?>
<!-- Generator: Adobe Illustrator 23.0.1, SVG Export Plug-In . SVG Version: 6.00 Build 0)  -->
<svg version="1.1" id="Layer_1" xmlns="http://www.w3.org/2000/svg" xmlns:xlink="http://www.w3.org/1999/xlink" x="0px" y="0px"
	 viewBox="0 0 166.33 156.78" style="enable-background:new 0 0 166.33 156.78;" xml:space="preserve">
<style type="text/css">
	.st0{fill:#252D3D;}
	.st1{fill:#1F8FCD;}
	.st2{fill:#EE8423;}
	.st3{fill:#FFFFFF;}
	.st4{fill:#5CC2DB;}
	.st5{fill:none;stroke:#252D3D;stroke-width:5;stroke-miterlimit:10;}
	.st6{fill:#EC6439;}
</style>
<g>
	<g>
		<g>
			<polygon class="st1" points="113.02,138.06 24.31,138.06 24.31,18.72 92.97,18.72 113.02,38.78 113.02,62.33 108.43,62.33 
				108.43,40.68 91.06,23.31 28.9,23.31 28.9,133.47 108.43,133.47 108.43,94.45 113.02,94.45 			"/>
			<polygon class="st1" points="110.73,42.02 89.72,42.02 89.72,21.02 94.31,21.02 94.31,37.43 110.73,37.43 			"/>
		</g>
		<g>
			<rect x="108.43" y="66.92" class="st1" width="4.59" height="4.59"/>
			<rect x="108.43" y="76.09" class="st1" width="4.59" height="4.59"/>
			<rect x="108.43" y="85.27" class="st1" width="4.59" height="4.59"/>
		</g>
		<g>
			<rect x="50.29" y="37.43" class="st1" width="32.54" height="4.59"/>
			<rect x="35.78" y="37.43" class="st1" width="9.92" height="4.59"/>
			<rect x="35.78" y="28.25" class="st1" width="23.53" height="4.59"/>
		</g>
		<g>
			<rect x="35.78" y="123.91" class="st1" width="35.18" height="4.59"/>
			<rect x="75.55" y="123.91" class="st1" width="16.46" height="4.59"/>
			<rect x="35.78" y="114.73" class="st1" width="65.76" height="4.59"/>
		</g>
	</g>
	<g>
		<path class="st2" d="M68.67,49.93c-15.72,0-28.46,12.74-28.46,28.46c0,15.72,12.74,28.46,28.46,28.46
			c15.72,0,28.46-12.74,28.46-28.46C97.12,62.67,84.38,49.93,68.67,49.93z M68.67,89.86c-6.34,0-11.47-5.14-11.47-11.47
			s5.14-11.47,11.47-11.47s11.47,5.13,11.47,11.47S75,89.86,68.67,89.86z"/>
		<rect x="66.37" y="76.09" class="st2" width="4.59" height="4.59"/>
		<rect x="133.33" y="36.68" class="st1" width="4.59" height="4.59"/>
		<rect x="133.33" y="114.75" class="st1" width="4.59" height="4.59"/>
		<path class="st0" d="M68.67,92.16c-7.59,0-13.77-6.18-13.77-13.77c0-7.59,6.18-13.77,13.77-13.77c7.59,0,13.77,6.18,13.77,13.77
			C82.44,85.98,76.26,92.16,68.67,92.16z M68.67,69.21c-5.06,0-9.18,4.12-9.18,9.18c0,5.06,4.12,9.18,9.18,9.18
			c5.06,0,9.18-4.12,9.18-9.18C77.85,73.33,73.73,69.21,68.67,69.21z"/>
		<path class="st0" d="M135.63,52.74c-7.59,0-13.77-6.18-13.77-13.77c0-7.59,6.18-13.77,13.77-13.77c7.59,0,13.77,6.18,13.77,13.77
			C149.4,46.57,143.22,52.74,135.63,52.74z M135.63,29.79c-5.06,0-9.18,4.12-9.18,9.18c0,5.06,4.12,9.18,9.18,9.18
			c5.06,0,9.18-4.12,9.18-9.18C144.81,33.91,140.69,29.79,135.63,29.79z"/>
		<path class="st0" d="M135.63,130.82c-7.59,0-13.77-6.18-13.77-13.77c0-7.59,6.18-13.77,13.77-13.77c7.59,0,13.77,6.18,13.77,13.77
			C149.4,124.64,143.22,130.82,135.63,130.82z M135.63,107.87c-5.06,0-9.18,4.12-9.18,9.18c0,5.06,4.12,9.18,9.18,9.18
			c5.06,0,9.18-4.12,9.18-9.18C144.81,111.99,140.69,107.87,135.63,107.87z"/>
		
			<rect x="74.93" y="56.66" transform="matrix(0.8659 -0.5002 0.5002 0.8659 -15.7709 59.0842)" class="st0" width="54.77" height="4.59"/>
		
			<rect x="99.85" y="70.53" transform="matrix(0.4999 -0.8661 0.8661 0.4999 -33.5518 137.333)" class="st0" width="4.59" height="54.37"/>
	</g>
</g>
</svg>
