<?xml version="1.0" encoding="utf-8"?>
<!-- Generator: Adobe Illustrator 23.0.1, SVG Export Plug-In . SVG Version: 6.00 Build 0)  -->
<svg version="1.1" id="Layer_1" xmlns="http://www.w3.org/2000/svg" xmlns:xlink="http://www.w3.org/1999/xlink" x="0px" y="0px"
	 viewBox="0 0 166.33 156.78" style="enable-background:new 0 0 166.33 156.78;" xml:space="preserve">
<style type="text/css">
	.st0{fill:#252D3D;}
	.st1{fill:#1F8FCD;}
	.st2{fill:#EE8423;}
	.st3{fill:#FFFFFF;}
	.st4{fill:#5CC2DB;}
	.st5{fill:none;stroke:#252D3D;stroke-width:5;stroke-miterlimit:10;}
	.st6{fill:#EC6439;}
</style>
<path class="st2" d="M83.16,26.66c-21.25-0.01-38.49,17.23-38.48,38.48c0,16.33,10.18,30.27,24.53,35.86
	c0.9-4.81,5.13-8.48,10.18-8.48h7.53c5.06,0,9.3,3.67,10.19,8.48c14.36-5.59,24.53-19.54,24.53-35.86
	C121.65,43.88,104.42,26.65,83.16,26.66z"/>
<g>
	<path class="st0" d="M86.92,142.92h-7.53c-6.98,0-12.65-5.68-12.65-12.66v-27.37c0-6.98,5.68-12.65,12.65-12.65h7.53
		c6.98,0,12.66,5.68,12.66,12.65v27.37C99.59,137.24,93.91,142.92,86.92,142.92z M79.39,94.81c-4.45,0-8.07,3.62-8.07,8.07v27.37
		c0,4.45,3.62,8.08,8.07,8.08h7.53c4.46,0,8.09-3.62,8.09-8.08v-27.37c0-4.45-3.63-8.07-8.09-8.07H79.39z"/>
	<path class="st0" d="M86.37,103.36c0,1.77-1.44,3.21-3.21,3.21c-1.77,0-3.2-1.44-3.2-3.21c0-1.78,1.43-3.21,3.2-3.21
		C84.93,100.15,86.37,101.58,86.37,103.36z"/>
</g>
<path class="st1" d="M58.02,108.82c-1.38-0.79-2.73-1.67-4.03-2.59l2.65-3.73c1.18,0.84,2.42,1.63,3.67,2.35L58.02,108.82z
	 M108.39,108.77l-2.29-3.96c1.25-0.72,2.48-1.52,3.66-2.36l2.66,3.72C111.12,107.1,109.77,107.98,108.39,108.77z M50.22,103.27
	c-1.21-1.04-2.37-2.15-3.47-3.3l3.31-3.16c1,1.04,2.06,2.06,3.16,3L50.22,103.27z M116.18,103.21l-3-3.46
	c1.09-0.95,2.15-1.96,3.15-3.01l3.31,3.16C118.55,101.05,117.39,102.17,116.18,103.21z M43.6,96.35c-0.99-1.25-1.93-2.56-2.79-3.9
	l3.84-2.48c0.78,1.21,1.64,2.41,2.54,3.54L43.6,96.35z M122.79,96.27l-3.6-2.83c0.89-1.13,1.74-2.33,2.53-3.55l3.85,2.48
	C124.71,93.71,123.77,95.03,122.79,96.27z M38.4,88.31c-0.73-1.41-1.41-2.88-2-4.36l4.25-1.71c0.54,1.34,1.15,2.68,1.82,3.96
	L38.4,88.31z M127.97,88.22l-4.07-2.1c0.66-1.28,1.27-2.62,1.81-3.96l4.25,1.7C129.37,85.34,128.7,86.8,127.97,88.22z M34.82,79.42
	c-0.45-1.53-0.83-3.1-1.14-4.66l4.49-0.87c0.27,1.42,0.62,2.84,1.03,4.23L34.82,79.42z M131.53,79.33l-4.39-1.28
	c0.41-1.39,0.75-2.82,1.02-4.24l4.5,0.86C132.36,76.23,131.98,77.79,131.53,79.33z M33,70.02c-0.15-1.58-0.23-3.19-0.23-4.79
	l4.58-0.01c0,1.45,0.07,2.92,0.21,4.35L33,70.02z M133.33,69.92l-4.56-0.43c0.13-1.44,0.2-2.9,0.2-4.35v-0.2h4.58v0.2
	C133.56,66.73,133.48,68.34,133.33,69.92z M37.54,60.87l-4.56-0.42c0.15-1.59,0.37-3.18,0.67-4.75l4.5,0.85
	C37.88,57.98,37.68,59.43,37.54,60.87z M128.76,60.6c-0.14-1.44-0.35-2.89-0.63-4.31l4.49-0.88c0.31,1.56,0.54,3.16,0.7,4.74
	L128.76,60.6z M39.16,52.32l-4.39-1.28c0.44-1.53,0.97-3.05,1.56-4.54l4.25,1.69C40.04,49.55,39.57,50.93,39.16,52.32z
	 M127.08,52.06c-0.41-1.39-0.9-2.77-1.44-4.11l4.24-1.72c0.6,1.47,1.13,3,1.59,4.53L127.08,52.06z M42.38,44.24l-4.07-2.09
	c0.73-1.42,1.53-2.81,2.39-4.15l3.85,2.47C43.77,41.68,43.04,42.95,42.38,44.24z M123.82,43.99c-0.67-1.28-1.41-2.55-2.2-3.76
	l3.84-2.49c0.87,1.33,1.68,2.73,2.42,4.14L123.82,43.99z M47.08,36.9l-3.6-2.82c0.98-1.25,2.04-2.47,3.13-3.63l3.32,3.15
	C48.93,34.65,47.97,35.76,47.08,36.9z M119.08,36.68c-0.9-1.13-1.86-2.24-2.87-3.28l3.3-3.17c1.1,1.15,2.16,2.36,3.15,3.61
	L119.08,36.68z M53.07,30.59l-3.01-3.45c1.2-1.05,2.47-2.05,3.76-2.97l2.67,3.72C55.31,28.72,54.16,29.63,53.07,30.59z M113.05,30.4
	c-1.1-0.95-2.25-1.85-3.44-2.69l2.64-3.74c1.3,0.92,2.57,1.91,3.78,2.95L113.05,30.4z M60.15,25.51l-2.3-3.96
	c1.38-0.8,2.81-1.55,4.25-2.21l1.92,4.16C62.7,24.11,61.4,24.78,60.15,25.51z M105.94,25.37c-1.26-0.72-2.56-1.39-3.88-1.99
	l1.89-4.17c1.45,0.66,2.89,1.39,4.27,2.18L105.94,25.37z M68.05,21.87l-1.51-4.32c1.5-0.52,3.05-0.98,4.6-1.36l1.09,4.45
	C70.82,20.98,69.42,21.39,68.05,21.87z M98.01,21.78c-1.37-0.47-2.77-0.88-4.18-1.21l1.06-4.45c1.55,0.37,3.1,0.82,4.61,1.33
	L98.01,21.78z M76.5,19.8l-0.66-4.53c1.57-0.23,3.18-0.38,4.77-0.47l0.23,4.57C79.39,19.45,77.93,19.59,76.5,19.8z M89.54,19.76
	c-1.43-0.2-2.89-0.33-4.34-0.4l0.2-4.57c1.6,0.07,3.2,0.22,4.77,0.43L89.54,19.76z"/>
<g>
	<path class="st3" d="M87.11,59.66v4.23h-5.2c1.02,1.27,1.95,2.54,1.95,4.36c0,1.65-0.63,2.96-1.9,3.89h2.62
		c1.27,0,2.67-0.04,3.68-0.89c0.97-0.76,1.48-2.12,1.48-3.43c0-0.59-0.08-1.02-0.25-1.57h4.44c0.3,0.76,0.42,1.44,0.42,2.24
		c0,2.5-1.06,4.65-2.88,6.14c-1.9,1.61-4.23,1.95-6.6,1.95H72.69v-4.44h3.13c1.65-0.25,2.71-1.52,2.71-3.34
		c0-2.12-1.19-3.43-2.41-4.91h-5.25v-4.23h2.83c-0.89-1.4-1.27-2.71-1.27-4.44c0-5.46,4.7-9.48,9.48-9.48c2.12,0,3.55,0.8,4.99,2.37
		v-1.73h4.74v8.38H86.9c-0.13-2.58-2.12-4.19-4.4-4.19c-2.62,0-4.7,2.16-4.7,5.04c0,1.65,0.55,2.88,1.57,4.06H87.11z"/>
</g>
</svg>
