<?xml version="1.0" encoding="utf-8"?>
<!-- Generator: Adobe Illustrator 23.0.1, SVG Export Plug-In . SVG Version: 6.00 Build 0)  -->
<svg version="1.1" id="Layer_1" xmlns="http://www.w3.org/2000/svg" xmlns:xlink="http://www.w3.org/1999/xlink" x="0px" y="0px"
	 viewBox="0 0 166.33 156.78" style="enable-background:new 0 0 166.33 156.78;" xml:space="preserve">
<style type="text/css">
	.st0{fill:#252D3D;}
	.st1{fill:#1F8FCD;}
	.st2{fill:#EE8423;}
	.st3{fill:#FFFFFF;}
	.st4{fill:#5CC2DB;}
	.st5{fill:none;stroke:#252D3D;stroke-width:5;stroke-miterlimit:10;}
	.st6{fill:#EC6439;}
</style>
<path class="st1" d="M81.71,137.13c-31.65,0-57.4-25.75-57.4-57.4c0-31.65,25.75-57.4,57.4-57.4c8.33,0,16.35,1.74,23.84,5.18
	l-1.91,4.17c-6.89-3.16-14.27-4.76-21.93-4.76c-29.12,0-52.81,23.69-52.81,52.81c0,29.12,23.69,52.81,52.81,52.81
	c29.12,0,52.81-23.69,52.81-52.81c0-7.68-1.61-15.08-4.79-22l4.17-1.92c3.46,7.52,5.21,15.57,5.21,23.92
	C139.11,111.38,113.36,137.13,81.71,137.13z"/>
<ellipse transform="matrix(0.7071 -0.7071 0.7071 0.7071 -32.4443 81.1296)" class="st2" cx="81.71" cy="79.73" rx="41.33" ry="41.33"/>
<g>
	
		<rect x="118.13" y="34.22" transform="matrix(0.7071 -0.7071 0.7071 0.7071 12.5992 103.4467)" class="st0" width="26.08" height="4.59"/>
	
		<rect x="118.02" y="33.95" transform="matrix(0.7071 -0.7071 0.7071 0.7071 6.3504 97.0422)" class="st0" width="4.59" height="13.8"/>
</g>
<g>
	<path class="st3" d="M94.64,83.64c0,3.89-0.61,6.71-3.38,9.59c-2.58,2.62-6.01,4.24-9.69,4.24c-3.38,0-6.67-1.41-9.14-3.74
		c-3.13-2.93-3.84-5.91-3.84-10.1v-10.1c0-3.89,0.56-6.71,3.33-9.59c2.52-2.63,6.01-4.19,9.64-4.19c3.43,0,6.72,1.36,9.19,3.69
		c3.13,2.93,3.89,5.91,3.89,10.1V83.64z M75.35,83.74c0,1.87,0.05,3.54,1.16,5.15c1.16,1.67,3.08,2.42,5.1,2.42
		c2.12,0,4.19-0.91,5.3-2.78c0.91-1.51,0.96-3.08,0.96-4.8v-10.2c0-1.87-0.05-3.53-1.21-5.15c-1.11-1.67-3.08-2.47-5.05-2.47
		c-2.12,0-4.19,0.96-5.3,2.83c-0.96,1.51-0.96,3.08-0.96,4.8V83.74z"/>
</g>
</svg>
