<?xml version="1.0" encoding="utf-8"?>
<!-- Generator: Adobe Illustrator 23.0.1, SVG Export Plug-In . SVG Version: 6.00 Build 0)  -->
<svg version="1.1" id="Layer_1" xmlns="http://www.w3.org/2000/svg" xmlns:xlink="http://www.w3.org/1999/xlink" x="0px" y="0px"
	 viewBox="0 0 166.33 156.78" style="enable-background:new 0 0 166.33 156.78;" xml:space="preserve">
<style type="text/css">
	.st0{fill:#252D3D;}
	.st1{fill:#1F8FCD;}
	.st2{fill:#EE8423;}
	.st3{fill:#FFFFFF;}
	.st4{fill:#5CC2DB;}
	.st5{fill:none;stroke:#252D3D;stroke-width:5;stroke-miterlimit:10;}
	.st6{fill:#EC6439;}
</style>
<path class="st0" d="M108.91,45.09h-4.6V34.28c0-8.92-7.26-16.18-16.18-16.18c-8.92,0-16.18,7.26-16.18,16.18v10.81h-4.6V34.28
	c0-11.46,9.32-20.78,20.78-20.78c11.46,0,20.78,9.32,20.78,20.78V45.09z"/>
<path class="st1" d="M119.1,127.79c-3.95,0-7.66-1.54-10.45-4.33c-2.79-2.79-4.33-6.5-4.33-10.46V42.79h29.57v70.21
	c0,3.95-1.54,7.67-4.33,10.46C126.76,126.25,123.05,127.79,119.1,127.79z M108.91,47.39v65.62c0,2.72,1.06,5.28,2.98,7.2
	c1.92,1.93,4.48,2.99,7.2,2.99c2.72,0,5.28-1.06,7.2-2.98c1.93-1.92,2.99-4.48,2.99-7.21V47.39H108.91z"/>
<path class="st1" d="M119.1,127.79H45.18c-3.95,0-7.66-1.54-10.46-4.33c-2.79-2.79-4.33-6.51-4.33-10.46V42.79h78.52v70.21
	c0,2.72,1.06,5.28,2.98,7.2c1.92,1.93,4.48,2.99,7.2,2.99V127.79z M34.99,47.39v65.62c0,2.72,1.06,5.28,2.98,7.21
	c1.92,1.93,4.48,2.98,7.21,2.98h63.21c-2.63-2.76-4.07-6.36-4.07-10.19V47.39H34.99z"/>
<g>
	<path class="st0" d="M90.43,59.1h-4.6V34.28c0-8.92-7.26-16.18-16.18-16.18c-8.92,0-16.18,7.26-16.18,16.18V59.1h-4.6V34.28
		c0-11.46,9.32-20.78,20.78-20.78c11.46,0,20.78,9.32,20.78,20.78V59.1z"/>
	<rect x="44.93" y="56.8" class="st0" width="12.49" height="4.6"/>
	<rect x="81.89" y="56.8" class="st0" width="12.48" height="4.6"/>
</g>
<rect x="116.8" y="45.09" class="st1" width="4.6" height="44.7"/>
<g>
	<rect x="42.32" y="70.33" class="st2" width="55.64" height="36.16"/>
	<polygon class="st3" points="65.69,83.65 76.28,94.23 80.72,89.79 91.56,100.62 48.72,100.62 	"/>
	<path class="st3" d="M80.17,79.76c0,2.15-1.74,3.9-3.89,3.9c-2.15,0-3.89-1.74-3.89-3.9c0-2.15,1.74-3.9,3.89-3.9
		C78.43,75.86,80.17,77.61,80.17,79.76z"/>
</g>
</svg>
