<?xml version="1.0" encoding="utf-8"?>
<!-- Generator: Adobe Illustrator 23.0.1, SVG Export Plug-In . SVG Version: 6.00 Build 0)  -->
<svg version="1.1" id="Layer_1" xmlns="http://www.w3.org/2000/svg" xmlns:xlink="http://www.w3.org/1999/xlink" x="0px" y="0px"
	 viewBox="0 0 166.33 156.78" style="enable-background:new 0 0 166.33 156.78;" xml:space="preserve">
<style type="text/css">
	.st0{fill:#252D3D;}
	.st1{fill:#1F8FCD;}
	.st2{fill:#EE8423;}
	.st3{fill:#FFFFFF;}
	.st4{fill:#5CC2DB;}
	.st5{fill:none;stroke:#252D3D;stroke-width:5;stroke-miterlimit:10;}
	.st6{fill:#EC6439;}
</style>
<rect x="26.71" y="73.41" class="st0" width="55.21" height="4.58"/>
<rect x="26.71" y="82.31" class="st0" width="55.21" height="4.58"/>
<rect x="26.71" y="91.2" class="st0" width="45.21" height="4.58"/>
<g>
	<g>
		<rect x="14.95" y="102.7" class="st0" width="4.6" height="4.6"/>
		<path class="st0" d="M14.95,98.34v-4.36h4.6v4.36H14.95z M14.95,89.62v-4.36h4.6v4.36H14.95z M14.95,80.89v-4.36h4.6v4.36H14.95z
			 M14.95,72.17v-4.36h4.6v4.36H14.95z M14.95,63.44v-4.36h4.6v4.36H14.95z"/>
		<rect x="14.95" y="50.12" class="st0" width="4.6" height="4.6"/>
		<path class="st0" d="M24.14,54.72v-4.6h4.6v4.6H24.14z M33.33,54.72v-4.6h4.6v4.6H33.33z M42.53,54.72v-4.6h4.6v4.6H42.53z
			 M51.72,54.72v-4.6h4.6v4.6H51.72z M70.11,54.72v-4.6h4.6v4.6H70.11z M125.26,54.72v-4.6h4.6v4.6H125.26z"/>
		<rect x="134.46" y="50.12" class="st0" width="4.6" height="4.6"/>
		<path class="st0" d="M134.46,98.34v-4.36h4.6v4.36H134.46z M134.46,89.62v-4.36h4.6v4.36H134.46z M134.46,80.89v-4.36h4.6v4.36
			H134.46z M134.46,72.17v-4.36h4.6v4.36H134.46z M134.46,63.44v-4.36h4.6v4.36H134.46z"/>
		<rect x="134.46" y="102.7" class="st0" width="4.6" height="4.6"/>
		<path class="st0" d="M24.14,107.3v-4.6h4.6v4.6H24.14z M33.33,107.3v-4.6h4.6v4.6H33.33z M42.53,107.3v-4.6h4.6v4.6H42.53z
			 M51.72,107.3v-4.6h4.6v4.6H51.72z M60.91,107.3v-4.6h4.6v4.6H60.91z M70.11,107.3v-4.6h4.6v4.6H70.11z M79.3,107.3v-4.6h4.6v4.6
			H79.3z M88.49,107.3v-4.6h4.6v4.6H88.49z M97.68,107.3v-4.6h4.6v4.6H97.68z M106.88,107.3v-4.6h4.6v4.6H106.88z M116.07,107.3
			v-4.6h4.6v4.6H116.07z M125.26,107.3v-4.6h4.6v4.6H125.26z"/>
	</g>
</g>
<circle class="st3" cx="90.79" cy="52.42" r="34.47"/>
<g>
	<path class="st1" d="M114.94,50.42c0,14.28-11.58,25.85-25.86,25.85c-14.27,0-25.85-11.58-25.85-25.85
		c0-14.28,11.58-25.85,25.85-25.85C103.36,24.57,114.94,36.14,114.94,50.42z"/>
	<path class="st1" d="M89.08,87.19c-20.27,0-36.76-16.49-36.76-36.77c0-20.27,16.49-36.77,36.76-36.77
		c20.28,0,36.77,16.49,36.77,36.77C125.86,70.7,109.36,87.19,89.08,87.19z M89.08,18.25c-17.74,0-32.17,14.43-32.17,32.17
		c0,17.74,14.43,32.17,32.17,32.17c17.74,0,32.18-14.43,32.18-32.17C121.26,32.68,106.82,18.25,89.08,18.25z"/>
	<g>
		<path class="st3" d="M90.95,63.93h-3.74c-2.1,0-4.09-0.82-5.58-2.3c-1.5-1.52-2.31-3.5-2.31-5.6h4.6c0,0.88,0.35,1.72,0.97,2.36
			c0.61,0.61,1.45,0.95,2.33,0.95h3.74c0.88,0,1.72-0.35,2.36-0.98c0.61-0.62,0.95-1.45,0.95-2.33c0-0.88-0.34-1.71-0.97-2.33
			c-0.63-0.62-1.46-0.97-2.34-0.97h-3.74c-2.11,0-4.09-0.82-5.59-2.31c-1.49-1.51-2.31-3.49-2.31-5.59c0-2.11,0.82-4.09,2.3-5.59
			c1.52-1.5,3.5-2.31,5.59-2.31h3.74c2.08,0,4.07,0.81,5.58,2.29c1.51,1.52,2.33,3.51,2.33,5.61h-4.6c0-0.88-0.35-1.72-0.97-2.35
			c-0.62-0.61-1.46-0.96-2.34-0.96h-3.74c-0.88,0-1.71,0.34-2.35,0.97c-0.61,0.61-0.95,1.45-0.95,2.33c0,0.88,0.34,1.71,0.97,2.34
			c0.62,0.62,1.45,0.96,2.33,0.96h3.74c2.1,0,4.08,0.82,5.58,2.31c1.5,1.5,2.32,3.49,2.32,5.59c0,2.09-0.82,4.08-2.3,5.58
			C95.03,63.11,93.04,63.93,90.95,63.93z"/>
		<rect x="86.78" y="34.73" class="st3" width="4.6" height="4.48"/>
		<rect x="86.78" y="61.63" class="st3" width="4.6" height="4.48"/>
	</g>
</g>
<circle class="st3" cx="118.31" cy="103.62" r="34.47"/>
<path class="st2" d="M144.46,103.62c0,14.28-11.58,25.85-25.86,25.85c-14.27,0-25.85-11.58-25.85-25.85
	c0-14.28,11.58-25.85,25.85-25.85C132.88,77.77,144.46,89.35,144.46,103.62z"/>
<path class="st2" d="M118.6,140.39c-20.27,0-36.76-16.49-36.76-36.77c0-20.27,16.49-36.77,36.76-36.77
	c20.28,0,36.77,16.49,36.77,36.77C155.37,123.9,138.88,140.39,118.6,140.39z M118.6,71.45c-17.74,0-32.17,14.43-32.17,32.17
	c0,17.74,14.43,32.17,32.17,32.17c17.74,0,32.18-14.43,32.18-32.17C150.78,85.88,136.34,71.45,118.6,71.45z"/>
<g>
	<path class="st3" d="M123.39,102.17v4.23h-5.2c1.02,1.27,1.95,2.54,1.95,4.36c0,1.65-0.63,2.96-1.9,3.89h2.62
		c1.27,0,2.67-0.04,3.68-0.89c0.97-0.76,1.48-2.12,1.48-3.43c0-0.59-0.08-1.02-0.25-1.57h4.44c0.3,0.76,0.42,1.44,0.42,2.24
		c0,2.5-1.06,4.65-2.88,6.14c-1.9,1.61-4.23,1.95-6.6,1.95h-12.19v-4.44h3.13c1.65-0.25,2.71-1.52,2.71-3.34
		c0-2.12-1.19-3.43-2.41-4.91h-5.25v-4.23h2.83c-0.89-1.4-1.27-2.71-1.27-4.44c0-5.46,4.7-9.48,9.48-9.48c2.12,0,3.55,0.8,4.99,2.37
		v-1.73h4.74v8.38h-4.74c-0.13-2.58-2.12-4.19-4.4-4.19c-2.62,0-4.7,2.16-4.7,5.04c0,1.65,0.55,2.88,1.57,4.06H123.39z"/>
</g>
</svg>
