<?xml version="1.0" encoding="utf-8"?>
<!-- Generator: Adobe Illustrator 23.0.1, SVG Export Plug-In . SVG Version: 6.00 Build 0)  -->
<svg version="1.1" id="Layer_1" xmlns="http://www.w3.org/2000/svg" xmlns:xlink="http://www.w3.org/1999/xlink" x="0px" y="0px"
	 viewBox="0 0 166.33 156.78" style="enable-background:new 0 0 166.33 156.78;" xml:space="preserve">
<style type="text/css">
	.st0{fill:#252D3D;}
	.st1{fill:#1F8FCD;}
	.st2{fill:#EE8423;}
	.st3{fill:#FFFFFF;}
	.st4{fill:#5CC2DB;}
	.st5{fill:none;stroke:#252D3D;stroke-width:5;stroke-miterlimit:10;}
	.st6{fill:#EC6439;}
</style>
<g>
	<rect x="68.65" y="58.13" class="st0" width="55.21" height="4.58"/>
	<rect x="68.65" y="67.02" class="st0" width="55.21" height="4.58"/>
	<rect x="68.65" y="75.92" class="st0" width="55.21" height="4.58"/>
	<rect x="68.65" y="84.81" class="st0" width="55.21" height="4.58"/>
	<rect x="68.65" y="93.7" class="st0" width="55.21" height="4.58"/>
	<rect x="68.65" y="102.6" class="st0" width="45.21" height="4.58"/>
</g>
<path class="st1" d="M134.86,118.25H25.42V48.06h109.44V118.25z M30,113.67h100.29V52.64H30V113.67z"/>
<path class="st1" d="M134.86,52.64H25.42V34.33h109.44V52.64z M30,48.06h100.29V38.9H30V48.06z"/>
<g>
	<rect x="35.03" y="41.19" class="st0" width="4.58" height="4.58"/>
	<rect x="44.19" y="41.19" class="st0" width="4.58" height="4.58"/>
	<rect x="53.34" y="41.19" class="st0" width="4.58" height="4.58"/>
</g>
<rect x="35.03" y="57.67" class="st2" width="26.63" height="50.96"/>
</svg>
