<?xml version="1.0" encoding="utf-8"?>
<!-- Generator: Adobe Illustrator 23.0.1, SVG Export Plug-In . SVG Version: 6.00 Build 0)  -->
<svg version="1.1" id="Layer_1" xmlns="http://www.w3.org/2000/svg" xmlns:xlink="http://www.w3.org/1999/xlink" x="0px" y="0px"
	 viewBox="0 0 166.33 156.78" style="enable-background:new 0 0 166.33 156.78;" xml:space="preserve">
<style type="text/css">
	.st0{fill:#252D3D;}
	.st1{fill:#1F8FCD;}
	.st2{fill:#EE8423;}
	.st3{fill:#FFFFFF;}
	.st4{fill:#5CC2DB;}
	.st5{fill:none;stroke:#252D3D;stroke-width:5;stroke-miterlimit:10;}
	.st6{fill:#EC6439;}
</style>
<path class="st1" d="M81.71,137.57c-31.65,0-57.4-25.75-57.4-57.4c0-31.65,25.75-57.4,57.4-57.4c8.33,0,16.35,1.74,23.84,5.18
	l-1.91,4.17c-6.89-3.16-14.27-4.76-21.93-4.76c-29.12,0-52.81,23.69-52.81,52.81c0,29.12,23.69,52.81,52.81,52.81
	c29.12,0,52.81-23.69,52.81-52.81c0-7.68-1.61-15.08-4.79-22l4.17-1.92c3.46,7.52,5.21,15.57,5.21,23.92
	C139.11,111.82,113.36,137.57,81.71,137.57z"/>
<ellipse transform="matrix(0.7071 -0.7071 0.7071 0.7071 -32.7586 81.2598)" class="st2" cx="81.71" cy="80.17" rx="41.33" ry="41.33"/>
<g>
	
		<rect x="118.13" y="34.66" transform="matrix(0.7071 -0.7071 0.7071 0.7071 12.2849 103.5769)" class="st0" width="26.08" height="4.59"/>
	
		<rect x="118.02" y="34.4" transform="matrix(0.7071 -0.7071 0.7071 0.7071 6.0361 97.1723)" class="st0" width="4.59" height="13.8"/>
</g>
<g>
	<path class="st3" d="M88.88,61.16L80.5,73.13c1.06-0.61,1.92-0.81,3.18-0.81c6.61,0,11.41,5.96,11.41,12.27
		c0,7.42-5.81,13.33-13.33,13.33c-3.33,0-6.97-1.57-9.34-3.84c-2.58-2.58-3.94-6.26-3.94-9.8c0-3.43,1.31-6.11,3.18-8.89l9.69-14.24
		H88.88z M88.58,84.84c0-3.74-2.93-6.82-6.72-6.82c-3.69,0-6.77,2.88-6.77,6.61c0,3.69,2.93,6.77,6.72,6.77
		C85.45,91.41,88.58,88.48,88.58,84.84z"/>
</g>
</svg>
