<?xml version="1.0" encoding="utf-8"?>
<!-- Generator: Adobe Illustrator 23.0.1, SVG Export Plug-In . SVG Version: 6.00 Build 0)  -->
<svg version="1.1" id="Layer_1" xmlns="http://www.w3.org/2000/svg" xmlns:xlink="http://www.w3.org/1999/xlink" x="0px" y="0px"
	 viewBox="0 0 166.33 156.78" style="enable-background:new 0 0 166.33 156.78;" xml:space="preserve">
<style type="text/css">
	.st0{fill:#252D3D;}
	.st1{fill:#1F8FCD;}
	.st2{fill:#EE8423;}
	.st3{fill:#FFFFFF;}
	.st4{fill:#5CC2DB;}
	.st5{fill:none;stroke:#252D3D;stroke-width:5;stroke-miterlimit:10;}
	.st6{fill:#EC6439;}
</style>
<g>
	<path class="st2" d="M28.17,108.82h-4.58V39.7c0-1.63,0.64-3.16,1.79-4.31c1.13-1.15,2.67-1.79,4.3-1.79h106.6
		c1.63,0,3.16,0.63,4.32,1.79c1.15,1.15,1.79,2.68,1.79,4.31v5.35h-4.58V39.7c0-0.4-0.16-0.78-0.45-1.07
		c-0.29-0.29-0.67-0.45-1.08-0.45H29.68c-0.4,0-0.78,0.16-1.06,0.44c-0.3,0.3-0.46,0.68-0.46,1.08V108.82z"/>
	<path class="st2" d="M105.79,50.33c0-2.9,2.38-5.28,5.27-5.28H35.04v63.77h70.74V50.33z"/>
	<path class="st2" d="M111.05,121.27H19.35c-1.96,0-3.81-0.76-5.21-2.15c-1.4-1.39-2.16-3.25-2.16-5.22v-7.37h93.81v4.58H16.56v2.79
		c0,0.75,0.29,1.45,0.81,1.98c0.53,0.52,1.23,0.81,1.98,0.81h91.71V121.27z"/>
</g>
<rect x="121.88" y="106.53" class="st0" width="13.74" height="4.58"/>
<path class="st1" d="M146.43,121.27h-35.38c-4.17,0-7.56-3.39-7.56-7.56V99.06h4.58v14.65c0,1.64,1.34,2.98,2.98,2.98h35.38
	c1.65,0,2.99-1.34,2.99-2.98V50.34c0-1.65-1.34-2.99-2.99-2.99h-35.38c-1.61,0-2.98,1.37-2.98,2.99v13.91h-4.58V50.34
	c0-4.17,3.39-7.57,7.56-7.57h35.38c4.17,0,7.57,3.4,7.57,7.57v63.38C154,117.88,150.6,121.27,146.43,121.27z"/>
<rect x="112.2" y="51.47" class="st1" width="33.09" height="49.48"/>
<g>
	<g>
		<path class="st0" d="M115.92,94.94H93.99c-3.55,0-6.88-1.38-9.39-3.89c-2.51-2.51-3.89-5.85-3.89-9.39V71.7h4.58v9.96
			c0,2.32,0.91,4.51,2.55,6.15c1.64,1.64,3.83,2.55,6.15,2.55h21.93V94.94z"/>
		<polygon class="st0" points="87.79,79.73 82.99,74.94 78.2,79.73 74.96,76.49 82.99,68.46 91.03,76.49 		"/>
	</g>
	<g>
		<path class="st0" d="M131.04,91.61h-4.58v-9.96c0-2.33-0.91-4.51-2.55-6.16c-1.64-1.64-3.83-2.55-6.16-2.55H95.82v-4.58h21.93
			c3.55,0,6.89,1.38,9.4,3.89c2.51,2.51,3.89,5.84,3.89,9.39V91.61z"/>
		<polygon class="st0" points="128.75,94.85 120.71,86.81 123.95,83.58 128.75,88.37 133.54,83.58 136.78,86.81 		"/>
	</g>
</g>
</svg>
