<?xml version="1.0" encoding="utf-8"?>
<!-- Generator: Adobe Illustrator 23.0.1, SVG Export Plug-In . SVG Version: 6.00 Build 0)  -->
<svg version="1.1" id="Layer_1" xmlns="http://www.w3.org/2000/svg" xmlns:xlink="http://www.w3.org/1999/xlink" x="0px" y="0px"
	 viewBox="0 0 166.33 156.78" style="enable-background:new 0 0 166.33 156.78;" xml:space="preserve">
<style type="text/css">
	.st0{fill:#252D3D;}
	.st1{fill:#1F8FCD;}
	.st2{fill:#EE8423;}
	.st3{fill:#FFFFFF;}
	.st4{fill:#5CC2DB;}
	.st5{fill:none;stroke:#252D3D;stroke-width:5;stroke-miterlimit:10;}
	.st6{fill:#EC6439;}
</style>
<g>
	<g>
		<g>
			<polygon class="st1" points="87.24,116.04 34.1,116.04 34.1,70.98 38.68,70.98 38.68,111.46 87.24,111.46 			"/>
			<polygon class="st1" points="38.68,75.09 34.1,75.09 34.1,33.39 114.81,33.39 114.81,113.28 110.24,113.28 110.24,37.97 
				38.68,37.97 			"/>
			<path class="st1" d="M114.81,37.97H34.1V19.66h80.71V37.97z M38.68,33.4h71.55v-9.15H38.68V33.4z"/>
			<g>
				<rect x="43.72" y="26.53" class="st0" width="4.58" height="4.58"/>
				<rect x="52.87" y="26.53" class="st0" width="4.58" height="4.58"/>
				<rect x="62.03" y="26.53" class="st0" width="4.58" height="4.58"/>
			</g>
		</g>
	</g>
	<rect x="43.17" y="42.73" class="st2" width="61.94" height="64.06"/>
	<g>
		<path class="st3" d="M125.41,134.16c-12.22,0-27.9-8.09-40.93-21.12c-8.99-8.99-15.75-19.42-19.02-29.38
			c-3.49-10.61-2.56-19.3,2.62-24.48l4.46-4.45c0.68-0.69,1.61-1.07,2.6-1.07c0.98,0,1.91,0.38,2.61,1.08l13.63,13.63
			c0.69,0.68,1.07,1.61,1.07,2.59c0,0.99-0.38,1.91-1.08,2.61l-4.44,4.45c-1.78,1.78-1.84,5.24-0.19,9.5
			c1.74,4.47,5.12,9.35,9.52,13.75c6.52,6.52,14.08,10.73,19.27,10.73c1.18,0,2.83-0.24,3.98-1.39l4.44-4.44
			c0.7-0.7,1.63-1.08,2.62-1.08c0.98,0,1.91,0.38,2.6,1.07l13.63,13.64c0.69,0.69,1.07,1.61,1.07,2.6c0,0.99-0.39,1.92-1.09,2.62
			l-4.44,4.44C135.22,132.58,130.87,134.16,125.41,134.16L125.41,134.16z"/>
		<path class="st0" d="M125.44,135.91L125.44,135.91c-12.67,0-28.82-8.29-42.17-21.63c-20.4-20.39-27.6-45.14-16.4-56.34l4.45-4.45
			c1.02-1.03,2.38-1.59,3.84-1.59c1.46,0,2.83,0.57,3.85,1.6l13.62,13.62c1.02,1.01,1.59,2.38,1.59,3.84c0,1.46-0.57,2.83-1.59,3.85
			l-4.44,4.45c-1.24,1.24-1.17,4.09,0.21,7.63c1.65,4.25,4.89,8.92,9.13,13.15c7.06,7.06,14.14,10.22,18.04,10.22
			c1.24,0,2.16-0.29,2.74-0.88l4.45-4.45c1.03-1.02,2.4-1.59,3.85-1.59c1.45,0,2.81,0.56,3.84,1.58l13.63,13.63
			c1.02,1.02,1.59,2.39,1.59,3.84s-0.57,2.82-1.59,3.85l-4.45,4.45C136.19,134.11,131.29,135.91,125.44,135.91z M75.16,56.49
			c-0.31,0-0.5,0.15-0.59,0.24l-4.46,4.45c-9.07,9.07-1.56,31.9,16.4,49.85c12.51,12.51,27.43,20.29,38.92,20.29
			c4.68,0,8.35-1.31,10.93-3.88l4.45-4.45c0.09-0.09,0.25-0.29,0.25-0.6c0-0.31-0.15-0.51-0.24-0.6l-13.62-13.63
			c-0.09-0.09-0.29-0.24-0.6-0.24c-0.3,0-0.5,0.13-0.61,0.25l-4.44,4.45c-1.45,1.45-3.52,2.22-5.98,2.22h0
			c-6,0-14.15-4.43-21.28-11.56C89.61,98.6,86,93.37,84.12,88.54c-2.11-5.44-1.82-9.89,0.82-12.53l4.44-4.45
			c0.1-0.1,0.25-0.29,0.25-0.6c0-0.31-0.15-0.5-0.24-0.59L75.77,56.74C75.67,56.64,75.47,56.49,75.16,56.49z"/>
	</g>
</g>
</svg>
