<svg xmlns="http://www.w3.org/2000/svg" width="89.806" height="16.523" viewBox="0 0 89.806 16.523"><g transform="translate(-646.576 -204.13)"><path d="M680.009,215.322a6.356,6.356,0,1,1,6.333,6.424,6.387,6.387,0,0,1-6.333-6.424m9.986.046a3.632,3.632,0,1,0-3.653,3.655A3.661,3.661,0,0,0,690,215.368" transform="translate(-7.584 -1.092)" fill="#fff"/><path d="M700.75,217.748h1.565v2.588H696.3v-2.588h1.68V206.717h-1.566v-2.586h4.334Z" transform="translate(-11.279 0)" fill="#fff"/><path d="M747.836,218.52a4.589,4.589,0,0,1-3.973,2,6.254,6.254,0,0,1-.022-12.506,5.054,5.054,0,0,1,4,1.975v-3.27h-1.59V204.13H750.6v13.618h1.566v2.587h-4.334Zm.067-4.29a3.665,3.665,0,1,0-3.676,3.745,3.7,3.7,0,0,0,3.676-3.745" transform="translate(-20.667)" fill="#fff"/><path d="M655.33,218.4a3.475,3.475,0,0,1-2.468.918,3.738,3.738,0,0,1-3.632-2.906h9.805l.09-.977a6.336,6.336,0,0,0-1.7-4.539,6.493,6.493,0,0,0-4.539-1.951,6.4,6.4,0,0,0,.068,12.8,6.2,6.2,0,0,0,5.465-3.346Zm-2.582-6.981a3.873,3.873,0,0,1,3.814,2.86h-7.354a3.755,3.755,0,0,1,3.54-2.86" transform="translate(0 -1.092)" fill="#fff"/><path d="M712.549,209.414V212l-2.383,6.128h-.023l-2.2-6.059h-.026v-2.657h-4.425V212h1.475l3.722,9.532h2.9L715.408,212h1.431v-2.588Z" transform="translate(-12.91 -1.199)" fill="#fff"/><path d="M729.4,218.4a3.472,3.472,0,0,1-2.468.918,3.739,3.739,0,0,1-3.631-2.906h9.805l.09-.977a6.332,6.332,0,0,0-1.7-4.539,6.492,6.492,0,0,0-4.539-1.951,6.4,6.4,0,0,0,.068,12.8,6.2,6.2,0,0,0,5.465-3.346Zm-2.581-6.981a3.872,3.872,0,0,1,3.813,2.86H723.28a3.753,3.753,0,0,1,3.54-2.86" transform="translate(-16.801 -1.092)" fill="#fff"/><path d="M671.827,209.414V212l-2.383,6.128h-.022l-2.2-6.059H667.2v-2.657H662.77V212h1.474l3.724,9.532h2.906L674.685,212h1.43v-2.588Z" transform="translate(-3.673 -1.199)" fill="#fff"/><path d="M761.731,222.52a1.7,1.7,0,1,1-1.7-1.7,1.7,1.7,0,0,1,1.7,1.7" transform="translate(-25.348 -3.785)" fill="#fff"/></g></svg>