<?xml version="1.0" encoding="utf-8"?>
<!-- Generator: Adobe Illustrator 23.0.1, SVG Export Plug-In . SVG Version: 6.00 Build 0)  -->
<svg version="1.1" id="Layer_1" xmlns="http://www.w3.org/2000/svg" xmlns:xlink="http://www.w3.org/1999/xlink" x="0px" y="0px"
	 viewBox="0 0 166.33 156.78" style="enable-background:new 0 0 166.33 156.78;" xml:space="preserve">
<style type="text/css">
	.st0{fill:#252D3D;}
	.st1{fill:#1F8FCD;}
	.st2{fill:#EE8423;}
	.st3{fill:#FFFFFF;}
	.st4{fill:#5CC2DB;}
	.st5{fill:none;stroke:#252D3D;stroke-width:5;stroke-miterlimit:10;}
	.st6{fill:#EC6439;}
</style>
<rect x="103.55" y="38.91" class="st2" width="32.23" height="41.4"/>
<rect x="49.05" y="66.84" class="st1" width="46.94" height="4.58"/>
<rect x="49.05" y="75.73" class="st1" width="46.94" height="4.58"/>
<rect x="30.54" y="66.84" class="st0" width="13.47" height="13.47"/>
<rect x="49.05" y="93.13" class="st1" width="46.94" height="4.58"/>
<rect x="49.05" y="102.02" class="st1" width="46.94" height="4.58"/>
<rect x="30.54" y="93.13" class="st0" width="13.47" height="13.47"/>
<rect x="49.05" y="40.55" class="st1" width="46.94" height="4.58"/>
<rect x="49.05" y="49.44" class="st1" width="46.94" height="4.58"/>
<rect x="30.54" y="40.55" class="st0" width="13.47" height="13.47"/>
<g>
	
		<rect x="110.49" y="57.31" transform="matrix(0.7071 -0.7071 0.7071 0.7071 -7.0999 102.0792)" class="st0" width="18.37" height="4.59"/>
	
		<rect x="117.37" y="50.43" transform="matrix(0.7071 -0.7071 0.7071 0.7071 -7.0994 102.079)" class="st0" width="4.59" height="18.37"/>
</g>
</svg>
