<?xml version="1.0" encoding="utf-8"?>
<!-- Generator: Adobe Illustrator 23.0.1, SVG Export Plug-In . SVG Version: 6.00 Build 0)  -->
<svg version="1.1" id="Layer_1" xmlns="http://www.w3.org/2000/svg" xmlns:xlink="http://www.w3.org/1999/xlink" x="0px" y="0px"
	 viewBox="0 0 166.33 150.1" style="enable-background:new 0 0 166.33 150.1;" xml:space="preserve">
<style type="text/css">
	.st0{fill:#252D3D;}
	.st1{fill:#1F8FCD;}
	.st2{fill:#EE8423;}
	.st3{fill:#FFFFFF;}
	.st4{fill:#5CC2DB;}
	.st5{fill:none;stroke:#252D3D;stroke-width:5;stroke-miterlimit:10;}
	.st6{fill:#EC6439;}
</style>
<polygon class="st1" points="139.45,125.53 86.5,125.53 86.5,120.93 134.84,120.93 134.84,42.65 28.94,42.65 28.94,120.93 
	77.29,120.93 77.29,125.53 24.33,125.53 24.33,38.04 139.45,38.04 "/>
<path class="st1" d="M139.45,42.65H24.33V24.23h115.12V42.65z M28.94,38.04h105.91v-9.21H28.94V38.04z"/>
<g>
	<rect x="34" y="31.14" class="st0" width="4.61" height="4.6"/>
	<rect x="43.21" y="31.14" class="st0" width="4.6" height="4.6"/>
	<rect x="52.42" y="31.14" class="st0" width="4.6" height="4.6"/>
</g>
<rect x="35.52" y="48.65" class="st2" width="92.75" height="65.63"/>
<polygon class="st3" points="74.08,72.44 89.7,81.46 74.08,90.48 "/>
</svg>
